:FULLY-SPECIFIED
:FORCE-ALL-JOINTS-BE-3DOF
:DEGREES
1019
root 1.1463 15.1598 32.4504 4.88612 -3.55054 3.59344
lfemur 8.49476 0.585391 5.70129
ltibia 1.43125e-014 -0 0
lfoot -30.1504 -11.0677 -3.50681e-007
ltoes -34.3719 0 0
rfemur -31.6648 -15.9007 -6.03428
rtibia 50.2376 -0 0
rfoot -22.3722 4.82318 0.000129113
rtoes -42.4147 0 0
lowerback -1.45647 -0.159447 0.27772
upperback -0.552889 -0.201068 -5.93557
thorax 0.225862 -0.108294 -6.31426
lowerneck -7.15352 0.938352 6.24929
upperneck 1.62955 0.566921 3.509
head 1.73549 0.417629 0.0655112
lclavicle 9.93923e-017 -7.95139e-015 0
lhumerus -58.6432 -46.3883 115.297
lradius 55.6586 -0 0
lwrist 25.266 0 0
lhand 37.2603 24.9112 4.40058e-006
lfingers 7.12502 -0 0
lthumb 60.0879 38.5989 3.64666e-006
rclavicle 9.93923e-017 -7.95139e-015 0
rhumerus 2.8832 -23.9197 0.170968
rradius 27.6742 -0 0
rwrist -10.2918 0 0
rhand -30.7875 -42.9207 0.000892363
rfingers 7.12502 -0 0
rthumb -4.07799 -72.8615 0.000854197
1020
root 1.14684 15.1598 32.4503 4.87678 -3.51667 3.57717
lfemur 8.48756 0.551885 5.71918
ltibia 1.43125e-014 -0 0
lfoot -30.1504 -11.0517 -2.91335e-007
ltoes -34.3859 0 0
rfemur -31.6337 -15.9076 -6.02735
rtibia 50.2322 -0 0
rfoot -22.3541 4.82948 0.000107263
rtoes -42.3976 0 0
lowerback -1.45868 -0.152809 0.265611
upperback -0.547524 -0.191611 -5.94025
thorax 0.233746 -0.103287 -6.31216
lowerneck -7.16601 0.929117 6.26397
upperneck 1.64298 0.551552 3.51156
head 1.74199 0.410747 0.0633902
lclavicle 9.93923e-017 -7.95139e-015 0
lhumerus -58.6506 -46.4168 115.3
lradius 55.681 -0 0
lwrist 25.2664 0 0
lhand 37.2605 24.9309 3.65587e-006
lfingers 7.12502 -0 0
lthumb 60.088 38.6184 3.02953e-006
rclavicle 9.93923e-017 -7.95139e-015 0
rhumerus 2.8502 -23.9026 0.188418
rradius 27.6646 -0 0
rwrist -10.263 0 0
rhand -30.7689 -42.8785 0.000741347
rfingers 7.12502 -0 0
rthumb -4.06002 -72.8196 0.00070964
1021
root 1.14738 15.1597 32.4503 4.86743 -3.48281 3.56088
lfemur 8.48034 0.518381 5.73707
ltibia 1.43125e-014 -0 0
lfoot -30.1504 -11.0357 -2.26594e-007
ltoes -34.3999 0 0
rfemur -31.6027 -15.9145 -6.02043
rtibia 50.2267 -0 0
rfoot -22.3361 4.83579 8.34267e-005
rtoes -42.3805 0 0
lowerback -1.46089 -0.146171 0.253501
upperback -0.54216 -0.182153 -5.94493
thorax 0.241631 -0.0982796 -6.31006
lowerneck -7.17851 0.919885 6.27866
upperneck 1.65641 0.536183 3.51412
head 1.7485 0.403865 0.0612685
lclavicle 9.93923e-017 -7.95139e-015 0
lhumerus -58.6579 -46.4453 115.302
lradius 55.7034 -0 0
lwrist 25.2668 0 0
lhand 37.2607 24.9507 2.84345e-006
lfingers 7.12502 -0 0
lthumb 60.0882 38.638 2.3563e-006
rclavicle 9.93923e-017 -7.95139e-015 0
rhumerus 2.81722 -23.8854 0.205855
rradius 27.6551 -0 0
rwrist -10.2341 0 0
rhand -30.7503 -42.8362 0.000576603
rfingers 7.12502 -0 0
rthumb -4.04205 -72.7777 0.000551941
1022
root 1.14793 15.1597 32.4502 4.85807 -3.44895 3.54459
lfemur 8.47312 0.48488 5.75497
ltibia 1.43125e-014 -0 0
lfoot -30.1505 -11.0197 -1.56457e-007
ltoes -34.4139 0 0
rfemur -31.5716 -15.9214 -6.01351
rtibia 50.2213 -0 0
rfoot -22.318 4.84209 5.76042e-005
rtoes -42.3634 0 0
lowerback -1.46311 -0.139534 0.241392
upperback -0.536797 -0.172695 -5.94962
thorax 0.249516 -0.093273 -6.30797
lowerneck -7.19101 0.910656 6.29335
upperneck 1.66985 0.520812 3.51668
head 1.75501 0.396984 0.059146
lclavicle 9.93923e-017 -7.95139e-015 0
lhumerus -58.6653 -46.4738 115.304
lradius 55.7259 -0 0
lwrist 25.2672 0 0
lhand 37.2609 24.9704 1.96333e-006
lfingers 7.12502 -0 0
lthumb 60.0884 38.6575 1.62697e-006
rclavicle 9.93923e-017 -7.95139e-015 0
rhumerus 2.78424 -23.8683 0.223279
rradius 27.6455 -0 0
rwrist -10.2053 0 0
rhand -30.7317 -42.7939 0.00039813
rfingers 7.12502 -0 0
rthumb -4.02409 -72.7358 0.000381102
1023
root 1.14847 15.1597 32.4501 4.8487 -3.41509 3.5283
lfemur 8.46589 0.451381 5.77287
ltibia 1.43125e-014 -0 0
lfoot -30.1505 -11.0038 -8.09263e-008
ltoes -34.4278 0 0
rfemur -31.5406 -15.9283 -6.00659
rtibia 50.2158 -0 0
rfoot -22.3 4.84839 2.97952e-005
rtoes -42.3463 0 0
lowerback -1.46532 -0.132897 0.229282
upperback -0.531435 -0.163236 -5.9543
thorax 0.257401 -0.0882667 -6.30587
lowerneck -7.20351 0.90143 6.30804
upperneck 1.68328 0.505441 3.51923
head 1.76151 0.390103 0.0570228
lclavicle 9.93923e-017 -7.95139e-015 0
lhumerus -58.6726 -46.5023 115.307
lradius 55.7483 -0 0
lwrist 25.2676 0 0
lhand 37.2611 24.9901 1.01552e-006
lfingers 7.12502 -0 0
lthumb 60.0885 38.6771 8.41537e-007
rclavicle 9.93923e-017 -7.95139e-015 0
rhumerus 2.75128 -23.8512 0.24069
rradius 27.636 -0 0
rwrist -10.1764 0 0
rhand -30.7131 -42.7517 0.000205929
rfingers 7.12502 -0 0
rthumb -4.00612 -72.6939 0.000197121
1024
root 1.14901 15.1597 32.45 4.83932 -3.38123 363.512
lfemur 8.45864 0.417884 5.79077
ltibia 1.43125e-014 0 0
lfoot -30.1505 -10.9878 0
ltoes -34.4418 0 0
rfemur -31.5095 -15.9352 -5.99968
rtibia 50.2104 0 0
rfoot -22.2819 4.85469 0
rtoes -42.3292 0 0
lowerback -1.46754 -0.126261 0.217172
upperback -0.526073 -0.153777 -5.95898
thorax 0.265286 -0.0832606 -6.30377
lowerneck -7.21602 0.892208 6.32273
upperneck 1.69671 0.49007 3.52178
head 1.76802 0.383222 0.0548987
lclavicle 9.93923e-017 -7.95139e-015 0
lhumerus -58.68 -46.5308 115.309
lradius 55.7707 0 0
lwrist 25.268 0 0
lhand 37.2613 25.0098 0
lfingers 7.12502 0 0
lthumb 60.0887 38.6966 0
rclavicle 9.93923e-017 -7.95139e-015 0
rhumerus 2.71832 -23.834 0.258088
rradius 27.6264 0 0
rwrist -10.1476 0 0
rhand -30.6945 -42.7094 0
rfingers 7.12502 0 0
rthumb -3.98815 -792.652 0
1025
root 1.15095 15.1597 32.4536 4.84113 -3.38037 3.50877
lfemur 8.47002 0.418173 5.78783
ltibia -3.02153e-014 0 0
lfoot -30.1587 -10.993 1.10183e-005
ltoes -34.437 0 0
rfemur -31.4919 -15.925 -6.00939
rtibia 50.2029 -0 0
rfoot -22.2678 4.87098 6.02958e-005
rtoes -42.2836 0 0
lowerback -1.4803 -0.124026 0.202309
upperback -0.524537 -0.150067 -5.96142
thorax 0.274464 -0.0812248 -6.2978
lowerneck -7.21049 0.886256 6.32875
upperneck 1.68513 0.482422 3.52831
head 1.76313 0.379141 0.0556494
lclavicle 2.18663e-015 2.54444e-014 0
lhumerus -58.6817 -46.5441 115.313
lradius 55.7722 -0 0
lwrist 25.2786 0 0
lhand 37.268 25.0194 1.67342e-005
lfingers 7.12502 -0 0
lthumb 60.0944 38.7002 5.2981e-006
rclavicle 2.18663e-015 2.54444e-014 0
rhumerus 2.697 -23.8224 0.2707
rradius 27.6216 -0 0
rwrist -10.1314 0 0
rhand -30.6882 -42.6849 4.02326e-005
rfingers 7.12502 -0 0
rthumb -3.98209 -72.6276 3.86923e-005
1026
root 1.15288 15.1598 32.4572 4.84293 -3.3795 3.50555
lfemur 8.48139 0.418462 5.78489
ltibia -3.02153e-014 0 0
lfoot -30.1668 -10.9981 2.1302e-005
ltoes -34.4322 0 0
rfemur -31.4742 -15.9148 -6.01909
rtibia 50.1954 -0 0
rfoot -22.2536 4.88726 0.000116572
rtoes -42.238 0 0
lowerback -1.49307 -0.121794 0.187446
upperback -0.523001 -0.146356 -5.96387
thorax 0.283641 -0.07919 -6.29183
lowerneck -7.20497 0.880303 6.33477
upperneck 1.67354 0.474775 3.53484
head 1.75824 0.37506 0.0564005
lclavicle 2.18663e-015 2.54444e-014 0
lhumerus -58.6833 -46.5575 115.317
lradius 55.7737 -0 0
lwrist 25.2892 0 0
lhand 37.2746 25.029 3.23528e-005
lfingers 7.12502 -0 0
lthumb 60.1001 38.7037 1.0243e-005
rclavicle 2.18663e-015 2.54444e-014 0
rhumerus 2.67569 -23.8108 0.283306
rradius 27.6169 -0 0
rwrist -10.1152 0 0
rhand -30.682 -42.6604 7.77831e-005
rfingers 7.12502 -0 0
rthumb -3.97603 -72.6032 7.48052e-005
1027
root 1.15482 15.1598 32.4608 4.84474 -3.37864 3.50232
lfemur 8.49277 0.418753 5.78195
ltibia -3.02153e-014 0 0
lfoot -30.175 -11.0033 3.08512e-005
ltoes -34.4274 0 0
rfemur -31.4566 -15.9045 -6.02879
rtibia 50.1879 -0 0
rfoot -22.2395 4.90355 0.000168828
rtoes -42.1924 0 0
lowerback -1.50584 -0.119565 0.172582
upperback -0.521466 -0.142646 -5.96631
thorax 0.29282 -0.0771562 -6.28586
lowerneck -7.19944 0.87435 6.34079
upperneck 1.66196 0.46713 3.54137
head 1.75336 0.370979 0.0571519
lclavicle 2.18663e-015 2.54444e-014 0
lhumerus -58.685 -46.5708 115.322
lradius 55.7751 -0 0
lwrist 25.2998 0 0
lhand 37.2813 25.0386 4.68557e-005
lfingers 7.12502 -0 0
lthumb 60.1057 38.7073 1.48347e-005
rclavicle 2.18663e-015 2.54444e-014 0
rhumerus 2.65438 -23.7992 0.295906
rradius 27.6121 -0 0
rwrist -10.0989 0 0
rhand -30.6757 -42.6359 0.000112651
rfingers 7.12502 -0 0
rthumb -3.96997 -72.5788 0.000108339
1028
root 1.15675 15.1598 32.4644 4.84654 -3.37777 3.49909
lfemur 8.50414 0.419043 5.77901
ltibia -3.02153e-014 0 0
lfoot -30.1832 -11.0084 3.96659e-005
ltoes -34.4226 0 0
rfemur -31.439 -15.8943 -6.03848
rtibia 50.1804 -0 0
rfoot -22.2253 4.91983 0.000217065
rtoes -42.1469 0 0
lowerback -1.5186 -0.117339 0.157717
upperback -0.51993 -0.138935 -5.96875
thorax 0.301998 -0.0751233 -6.27989
lowerneck -7.19392 0.868396 6.3468
upperneck 1.65037 0.459485 3.54791
head 1.74847 0.366898 0.0579036
lclavicle 2.18663e-015 2.54444e-014 0
lhumerus -58.6867 -46.5842 115.326
lradius 55.7766 -0 0
lwrist 25.3105 0 0
lhand 37.2879 25.0482 6.02431e-005
lfingers 7.12502 -0 0
lthumb 60.1114 38.7109 1.90732e-005
rclavicle 2.18663e-015 2.54444e-014 0
rhumerus 2.63307 -23.7876 0.3085
rradius 27.6073 -0 0
rwrist -10.0827 0 0
rhand -30.6694 -42.6114 0.000144838
rfingers 7.12502 -0 0
rthumb -3.96391 -72.5545 0.000139292
1029
root 1.15869 15.1599 32.468 4.84835 -3.37691 3.49587
lfemur 8.51552 0.419334 5.77607
ltibia -3.02153e-014 0 0
lfoot -30.1913 -11.0136 4.77459e-005
ltoes -34.4178 0 0
rfemur -31.4213 -15.8841 -6.04818
rtibia 50.1729 -0 0
rfoot -22.2112 4.93612 0.000261282
rtoes -42.1013 0 0
lowerback -1.53137 -0.115117 0.142852
upperback -0.518395 -0.135225 -5.9712
thorax 0.311176 -0.0730913 -6.27392
lowerneck -7.18839 0.862442 6.35282
upperneck 1.63879 0.451842 3.55444
head 1.74358 0.362817 0.0586557
lclavicle 2.18663e-015 2.54444e-014 0
lhumerus -58.6884 -46.5975 115.33
lradius 55.7781 -0 0
lwrist 25.3211 0 0
lhand 37.2946 25.0578 7.25148e-005
lfingers 7.12502 -0 0
lthumb 60.1171 38.7144 2.29584e-005
rclavicle 2.18663e-015 2.54444e-014 0
rhumerus 2.61177 -23.7761 0.321089
rradius 27.6026 -0 0
rwrist -10.0665 0 0
rhand -30.6631 -42.5869 0.000174342
rfingers 7.12502 -0 0
rthumb -3.95785 -72.5301 0.000167667
1030
root 1.16062 15.1599 32.4715 4.85015 -3.37604 3.49264
lfemur 8.52689 0.419626 5.77314
ltibia -3.02153e-014 0 0
lfoot -30.1995 -11.0187 5.50915e-005
ltoes -34.413 0 0
rfemur -31.4037 -15.8739 -6.05786
rtibia 50.1654 -0 0
rfoot -22.197 4.9524 0.000301479
rtoes -42.0557 0 0
lowerback -1.54414 -0.112898 0.127987
upperback -0.51686 -0.131514 -5.97364
thorax 0.320355 -0.0710604 -6.26795
lowerneck -7.18287 0.856487 6.35884
upperneck 1.6272 0.444201 3.56098
head 1.73869 0.358736 0.0594081
lclavicle 2.18663e-015 2.54444e-014 0
lhumerus -58.69 -46.6108 115.334
lradius 55.7796 -0 0
lwrist 25.3317 0 0
lhand 37.3012 25.0675 8.36709e-005
lfingers 7.12502 -0 0
lthumb 60.1228 38.718 2.64905e-005
rclavicle 2.18663e-015 2.54444e-014 0
rhumerus 2.59047 -23.7644 0.333671
rradius 27.5978 -0 0
rwrist -10.0503 0 0
rhand -30.6569 -42.5624 0.000201164
rfingers 7.12502 -0 0
rthumb -3.95179 -72.5057 0.000193462
